<svg width="512" height="512" viewBox="0 0 512 512" fill="none" xmlns="http://www.w3.org/2000/svg">
<rect width="512" height="512" rx="128" fill="white"/>
<rect width="512" height="512" rx="48" fill="#5C33CF"/>
<path fill-rule="evenodd" clip-rule="evenodd" d="M114 254.797C114 177.037 154.57 114 204.615 114H310.155C352.977 114 388.862 160.154 398.328 222.193C398.42 222.797 397.953 223.344 397.343 223.344H348.684C348.225 223.344 347.825 223.028 347.71 222.583C339.962 192.442 320.979 171.091 298.849 171.091L215.922 171.096C186.927 171.096 163.334 207.746 163.334 252.797C163.337 296.731 185.445 332.587 213.675 334.437C213.675 334.437 213.676 334.437 213.676 334.436V334.436C213.677 334.436 213.678 334.436 213.678 334.436L215.998 334.585C216.581 334.623 217.121 335.051 217.485 335.757C217.849 336.464 217.988 337.382 217.881 338.271L214.174 367.887C214.062 368.788 215.11 369.36 215.807 368.779L256.438 334.864C256.729 334.623 257.053 334.49 257.384 334.49H298.838C312.871 334.49 326.073 325.977 336.023 310.533C340.002 304.35 343.266 297.355 345.749 289.792C345.885 289.379 346.269 289.098 346.704 289.098H397.343C397.953 289.098 398.42 289.645 398.328 290.248C388.862 352.288 352.977 398.442 310.155 398.442H204.615C154.57 398.442 114 335.405 114 257.645V254.797ZM315.914 247.873C315.914 235.899 309.644 226.156 301.937 226.156C294.233 226.156 287.96 235.899 287.96 247.873C287.96 259.848 294.23 269.591 301.937 269.591C309.644 269.591 315.914 259.848 315.914 247.873ZM271.362 247.873C271.362 235.899 265.092 226.156 257.385 226.156C249.678 226.156 243.408 235.899 243.408 247.873C243.408 259.848 249.678 269.591 257.385 269.591C265.091 269.591 271.362 259.848 271.362 247.873ZM226.802 247.873C226.802 235.899 220.531 226.156 212.824 226.156C205.12 226.156 198.847 235.899 198.847 247.873C198.847 259.848 205.118 269.591 212.824 269.591C220.531 269.591 226.802 259.848 226.802 247.873Z" fill="white"/>
</svg>
